                         -=[HD DESI ROCKERS RELEASE]=-


Ong Bak 2[2008][BRRip][720p][Hindi]-MEGUIL & HDKING


IMDB 
http://www.imdb.com/title/tt0785035/

PLOT
Directors: Tony Jaa, Panna Rittikrai
Writer: Panna Rittikrai
Stars: Tony Jaa, Sarunyu Wongkrachang and Sorapong Chatree
Taglines: Warrior. Conqueror. Legend.
Genres: Action

Storyline
In 1431, the Kingdom of Ayutthayan conquers the territory of Sukhothai expanding their lands to the East. The noble Lord Siha Decho is betrayed by his Captain, Rajasena, and is murdered together with his wife. However their son Tien is saved by one loyal soldier and left alone in the woods...


CAST
Tony Jaa	 	 ...	Tien
Sarunyu Wongkrachang	 ...	Rajasena Lord
Sorapong Chatree	 ...	Chernang
Primorata Dejudom	 ...	Pim
Nirut Sirichanya	 ...	Master Bua (as Nirut Sirijanya)
Petchtai Wongkamlao	 ...	Mhen
Santisuk Promsiri	 ...	Nobleman Siha Decho
Patthama Panthong	 ...	Lady Plai
Supakorn Kitsuwon	 ...	Master Armer
Natdanai Kongthong	 ...	Young Tien
Prarinya Karmkeaw	 ...	Young Pim


MOVIE INFO
General
Format                           : Matroska
File size                        : 624 MiB
Duration                         : 1h 33mn
Overall bit rate                 : 932 Kbps
Movie name                       : Ong Bak 2[2008][BRRip][720p][Hindi]-MEGUIL& HDKING   -=[HD DESI ROCKERS RELEASE]=-
Encoded date                     : UTC 2011-07-14 03:50:19

Video
ID                               : 1
Format                           : AVC
Format/Info                      : Advanced Video Codec
Format profile                   : High@L3.1
Format settings, CABAC           : Yes
Format settings, ReFrames        : 4 frames
Muxing mode                      : Header stripping
Codec ID                         : V_MPEG4/ISO/AVC
Duration                         : 1h 33mn
Bit rate                         : 819 Kbps
Width                            : 1 280 pixels
Height                           : 544 pixels
Display aspect ratio             : 2.35:1
Frame rate mode                  : Variable
Frame rate                       : 25.000 fps
Color space                      : YUV
Chroma subsampling               : 4:2:0
Bit depth                        : 8 bits
Scan type                        : Progressive
Bits/(Pixel*Frame)               : 0.047
Stream size                      : 526 MiB (84%)

Audio
ID                               : 2
Format                           : MPEG Audio
Format version                   : Version 1
Format profile                   : Layer 3
Mode                             : Joint stereo
Mode extension                   : MS Stereo
Muxing mode                      : Header stripping
Codec ID                         : A_MPEG/L3
Codec ID/Hint                    : MP3
Duration                         : 1h 33mn
Bit rate mode                    : Constant
Bit rate                         : 128 Kbps
Channel(s)                       : 2 channels
Sampling rate                    : 44.1 KHz
Compression mode                 : Lossy
Stream size                      : 85.8 MiB (14%)
Language                         : Hindi


SCREENS  
http://img94.imageshack.us/img94/3151/vlcsnap2011071321h35m14.jpg 
http://img189.imageshack.us/img189/9352/vlcsnap2011071321h35m25.jpg 
http://img148.imageshack.us/img148/12/vlcsnap2011071321h35m29.jpg 
http://img810.imageshack.us/img810/6645/vlcsnap2011071321h35m37.jpg 
http://img687.imageshack.us/img687/3901/vlcsnap2011071321h36m06.jpg  